<?xml version="1.0" encoding="us-ascii" standalone="no"?><svg xmlns="http://www.w3.org/2000/svg" xmlns:xlink="http://www.w3.org/1999/xlink" contentStyleType="text/css" height="729px" preserveAspectRatio="none" style="width:1331px;height:729px;background:#FFFFFF;" version="1.1" viewBox="0 0 1331 729" width="1331px" zoomAndPan="magnify"><defs/><g><rect fill="#FFFFFF" height="71.2656" style="stroke:#181818;stroke-width:1.0;" width="10" x="130.5" y="112.4297"/><rect fill="#FFFFFF" height="71.2656" style="stroke:#181818;stroke-width:1.0;" width="10" x="291" y="183.6953"/><rect fill="#FFFFFF" height="129.5313" style="stroke:#181818;stroke-width:1.0;" width="10" x="457.5" y="284.0938"/><rect fill="#FFFFFF" height="129.5313" style="stroke:#181818;stroke-width:1.0;" width="10" x="650.5" y="442.7578"/><rect fill="#FFFFFF" height="29.1328" style="stroke:#181818;stroke-width:1.0;" width="10" x="854.5" y="601.4219"/><line style="stroke:#181818;stroke-width:0.5;stroke-dasharray:5.0,5.0;" x1="23" x2="23" y1="81.2969" y2="648.5547"/><line style="stroke:#181818;stroke-width:0.5;stroke-dasharray:5.0,5.0;" x1="135" x2="135" y1="81.2969" y2="648.5547"/><line style="stroke:#181818;stroke-width:0.5;stroke-dasharray:5.0,5.0;" x1="296" x2="296" y1="81.2969" y2="648.5547"/><line style="stroke:#181818;stroke-width:0.5;stroke-dasharray:5.0,5.0;" x1="462" x2="462" y1="81.2969" y2="648.5547"/><line style="stroke:#181818;stroke-width:0.5;stroke-dasharray:5.0,5.0;" x1="655.5" x2="655.5" y1="81.2969" y2="648.5547"/><line style="stroke:#181818;stroke-width:0.5;stroke-dasharray:5.0,5.0;" x1="859" x2="859" y1="81.2969" y2="648.5547"/><line style="stroke:#181818;stroke-width:0.5;stroke-dasharray:5.0,5.0;" x1="1089" x2="1089" y1="81.2969" y2="648.5547"/><line style="stroke:#181818;stroke-width:0.5;stroke-dasharray:5.0,5.0;" x1="1246" x2="1246" y1="81.2969" y2="648.5547"/><text fill="#000000" font-family="sans-serif" font-size="14" lengthAdjust="spacing" textLength="31" x="5" y="77.9951">User</text><ellipse cx="23.5" cy="13.5" fill="#E2E2F0" rx="8" ry="8" style="stroke:#181818;stroke-width:0.5;"/><path d="M23.5,21.5 L23.5,48.5 M10.5,29.5 L36.5,29.5 M23.5,48.5 L10.5,63.5 M23.5,48.5 L36.5,63.5 " fill="none" style="stroke:#181818;stroke-width:0.5;"/><text fill="#000000" font-family="sans-serif" font-size="14" lengthAdjust="spacing" textLength="31" x="5" y="660.5498">User</text><ellipse cx="23.5" cy="672.3516" fill="#E2E2F0" rx="8" ry="8" style="stroke:#181818;stroke-width:0.5;"/><path d="M23.5,680.3516 L23.5,707.3516 M10.5,688.3516 L36.5,688.3516 M23.5,707.3516 L10.5,722.3516 M23.5,707.3516 L36.5,722.3516 " fill="none" style="stroke:#181818;stroke-width:0.5;"/><text fill="#000000" font-family="sans-serif" font-size="14" lengthAdjust="spacing" textLength="149" x="58" y="77.9951">Transcription Engine</text><ellipse cx="135.5" cy="49" fill="#E2E2F0" rx="12" ry="12" style="stroke:#181818;stroke-width:0.5;"/><line style="stroke:#181818;stroke-width:0.5;" x1="123.5" x2="147.5" y1="63" y2="63"/><text fill="#000000" font-family="sans-serif" font-size="14" lengthAdjust="spacing" textLength="149" x="58" y="660.5498">Transcription Engine</text><ellipse cx="135.5" cy="679.8516" fill="#E2E2F0" rx="12" ry="12" style="stroke:#181818;stroke-width:0.5;"/><line style="stroke:#181818;stroke-width:0.5;" x1="123.5" x2="147.5" y1="693.8516" y2="693.8516"/><text fill="#000000" font-family="sans-serif" font-size="14" lengthAdjust="spacing" textLength="140" x="223" y="77.9951">BERT Vectorization</text><ellipse cx="296" cy="49" fill="#E2E2F0" rx="12" ry="12" style="stroke:#181818;stroke-width:0.5;"/><line style="stroke:#181818;stroke-width:0.5;" x1="284" x2="308" y1="63" y2="63"/><text fill="#000000" font-family="sans-serif" font-size="14" lengthAdjust="spacing" textLength="140" x="223" y="660.5498">BERT Vectorization</text><ellipse cx="296" cy="679.8516" fill="#E2E2F0" rx="12" ry="12" style="stroke:#181818;stroke-width:0.5;"/><line style="stroke:#181818;stroke-width:0.5;" x1="284" x2="308" y1="693.8516" y2="693.8516"/><text fill="#000000" font-family="sans-serif" font-size="14" lengthAdjust="spacing" textLength="161" x="379" y="77.9951">Summarization Engine</text><ellipse cx="462.5" cy="49" fill="#E2E2F0" rx="12" ry="12" style="stroke:#181818;stroke-width:0.5;"/><line style="stroke:#181818;stroke-width:0.5;" x1="450.5" x2="474.5" y1="63" y2="63"/><text fill="#000000" font-family="sans-serif" font-size="14" lengthAdjust="spacing" textLength="161" x="379" y="660.5498">Summarization Engine</text><ellipse cx="462.5" cy="679.8516" fill="#E2E2F0" rx="12" ry="12" style="stroke:#181818;stroke-width:0.5;"/><line style="stroke:#181818;stroke-width:0.5;" x1="450.5" x2="474.5" y1="693.8516" y2="693.8516"/><text fill="#000000" font-family="sans-serif" font-size="14" lengthAdjust="spacing" textLength="98" x="603.5" y="77.9951">Tweet Engine</text><ellipse cx="655.5" cy="49" fill="#E2E2F0" rx="12" ry="12" style="stroke:#181818;stroke-width:0.5;"/><line style="stroke:#181818;stroke-width:0.5;" x1="643.5" x2="667.5" y1="63" y2="63"/><text fill="#000000" font-family="sans-serif" font-size="14" lengthAdjust="spacing" textLength="98" x="603.5" y="660.5498">Tweet Engine</text><ellipse cx="655.5" cy="679.8516" fill="#E2E2F0" rx="12" ry="12" style="stroke:#181818;stroke-width:0.5;"/><line style="stroke:#181818;stroke-width:0.5;" x1="643.5" x2="667.5" y1="693.8516" y2="693.8516"/><text fill="#000000" font-family="sans-serif" font-size="14" lengthAdjust="spacing" textLength="101" x="806" y="77.9951">User Interface</text><ellipse cx="859.5" cy="49" fill="#E2E2F0" rx="12" ry="12" style="stroke:#181818;stroke-width:0.5;"/><line style="stroke:#181818;stroke-width:0.5;" x1="847.5" x2="871.5" y1="63" y2="63"/><text fill="#000000" font-family="sans-serif" font-size="14" lengthAdjust="spacing" textLength="101" x="806" y="660.5498">User Interface</text><ellipse cx="859.5" cy="679.8516" fill="#E2E2F0" rx="12" ry="12" style="stroke:#181818;stroke-width:0.5;"/><line style="stroke:#181818;stroke-width:0.5;" x1="847.5" x2="871.5" y1="693.8516" y2="693.8516"/><text fill="#000000" font-family="sans-serif" font-size="14" lengthAdjust="spacing" textLength="121" x="1026" y="77.9951">Vector Database</text><path d="M1071.5,29 C1071.5,19 1089.5,19 1089.5,19 C1089.5,19 1107.5,19 1107.5,29 L1107.5,55 C1107.5,65 1089.5,65 1089.5,65 C1089.5,65 1071.5,65 1071.5,55 L1071.5,29 " fill="#E2E2F0" style="stroke:#181818;stroke-width:1.5;"/><path d="M1071.5,29 C1071.5,39 1089.5,39 1089.5,39 C1089.5,39 1107.5,39 1107.5,29 " fill="none" style="stroke:#181818;stroke-width:1.5;"/><text fill="#000000" font-family="sans-serif" font-size="14" lengthAdjust="spacing" textLength="121" x="1026" y="660.5498">Vector Database</text><path d="M1071.5,673.8516 C1071.5,663.8516 1089.5,663.8516 1089.5,663.8516 C1089.5,663.8516 1107.5,663.8516 1107.5,673.8516 L1107.5,699.8516 C1107.5,709.8516 1089.5,709.8516 1089.5,709.8516 C1089.5,709.8516 1071.5,709.8516 1071.5,699.8516 L1071.5,673.8516 " fill="#E2E2F0" style="stroke:#181818;stroke-width:1.5;"/><path d="M1071.5,673.8516 C1071.5,683.8516 1089.5,683.8516 1089.5,683.8516 C1089.5,683.8516 1107.5,683.8516 1107.5,673.8516 " fill="none" style="stroke:#181818;stroke-width:1.5;"/><text fill="#000000" font-family="sans-serif" font-size="14" lengthAdjust="spacing" textLength="161" x="1163" y="77.9951">OpenAI GPT-3.5 Turbo</text><ellipse cx="1246.5" cy="49" fill="#E2E2F0" rx="12" ry="12" style="stroke:#181818;stroke-width:0.5;"/><line style="stroke:#181818;stroke-width:0.5;" x1="1234.5" x2="1258.5" y1="63" y2="63"/><text fill="#000000" font-family="sans-serif" font-size="14" lengthAdjust="spacing" textLength="161" x="1163" y="660.5498">OpenAI GPT-3.5 Turbo</text><ellipse cx="1246.5" cy="679.8516" fill="#E2E2F0" rx="12" ry="12" style="stroke:#181818;stroke-width:0.5;"/><line style="stroke:#181818;stroke-width:0.5;" x1="1234.5" x2="1258.5" y1="693.8516" y2="693.8516"/><rect fill="#FFFFFF" height="71.2656" style="stroke:#181818;stroke-width:1.0;" width="10" x="130.5" y="112.4297"/><rect fill="#FFFFFF" height="71.2656" style="stroke:#181818;stroke-width:1.0;" width="10" x="291" y="183.6953"/><rect fill="#FFFFFF" height="129.5313" style="stroke:#181818;stroke-width:1.0;" width="10" x="457.5" y="284.0938"/><rect fill="#FFFFFF" height="129.5313" style="stroke:#181818;stroke-width:1.0;" width="10" x="650.5" y="442.7578"/><rect fill="#FFFFFF" height="29.1328" style="stroke:#181818;stroke-width:1.0;" width="10" x="854.5" y="601.4219"/><polygon fill="#181818" points="118.5,108.4297,128.5,112.4297,118.5,116.4297,122.5,112.4297" style="stroke:#181818;stroke-width:1.0;"/><line style="stroke:#181818;stroke-width:1.0;" x1="23.5" x2="124.5" y1="112.4297" y2="112.4297"/><text fill="#000000" font-family="sans-serif" font-size="13" lengthAdjust="spacing" textLength="88" x="30.5" y="107.3638">Input video ID</text><line style="stroke:#181818;stroke-width:1.0;" x1="140.5" x2="182.5" y1="141.5625" y2="141.5625"/><line style="stroke:#181818;stroke-width:1.0;" x1="182.5" x2="182.5" y1="141.5625" y2="154.5625"/><line style="stroke:#181818;stroke-width:1.0;" x1="141.5" x2="182.5" y1="154.5625" y2="154.5625"/><polygon fill="#181818" points="151.5,150.5625,141.5,154.5625,151.5,158.5625,147.5,154.5625" style="stroke:#181818;stroke-width:1.0;"/><text fill="#000000" font-family="sans-serif" font-size="13" lengthAdjust="spacing" textLength="100" x="147.5" y="136.4966">Fetch transcript</text><polygon fill="#181818" points="279,179.6953,289,183.6953,279,187.6953,283,183.6953" style="stroke:#181818;stroke-width:1.0;"/><line style="stroke:#181818;stroke-width:1.0;" x1="135.5" x2="285" y1="183.6953" y2="183.6953"/><text fill="#000000" font-family="sans-serif" font-size="13" lengthAdjust="spacing" textLength="113" x="142.5" y="178.6294">Provide transcript</text><line style="stroke:#181818;stroke-width:1.0;" x1="301" x2="343" y1="212.8281" y2="212.8281"/><line style="stroke:#181818;stroke-width:1.0;" x1="343" x2="343" y1="212.8281" y2="225.8281"/><line style="stroke:#181818;stroke-width:1.0;" x1="302" x2="343" y1="225.8281" y2="225.8281"/><polygon fill="#181818" points="312,221.8281,302,225.8281,312,229.8281,308,225.8281" style="stroke:#181818;stroke-width:1.0;"/><text fill="#000000" font-family="sans-serif" font-size="13" lengthAdjust="spacing" textLength="125" x="308" y="207.7622">Vectorize transcript</text><polygon fill="#181818" points="1077.5,250.9609,1087.5,254.9609,1077.5,258.9609,1081.5,254.9609" style="stroke:#181818;stroke-width:1.0;"/><line style="stroke:#181818;stroke-width:1.0;" x1="296" x2="1083.5" y1="254.9609" y2="254.9609"/><text fill="#000000" font-family="sans-serif" font-size="13" lengthAdjust="spacing" textLength="170" x="303" y="249.895">Store vectorized transcript</text><polygon fill="#181818" points="478.5,280.0938,468.5,284.0938,478.5,288.0938,474.5,284.0938" style="stroke:#181818;stroke-width:1.0;"/><line style="stroke:#181818;stroke-width:1.0;" x1="472.5" x2="1088.5" y1="284.0938" y2="284.0938"/><text fill="#000000" font-family="sans-serif" font-size="13" lengthAdjust="spacing" textLength="190" x="484.5" y="279.0278">Retrieve vectorized transcript</text><line style="stroke:#181818;stroke-width:1.0;" x1="467.5" x2="509.5" y1="313.2266" y2="313.2266"/><line style="stroke:#181818;stroke-width:1.0;" x1="509.5" x2="509.5" y1="313.2266" y2="326.2266"/><line style="stroke:#181818;stroke-width:1.0;" x1="468.5" x2="509.5" y1="326.2266" y2="326.2266"/><polygon fill="#181818" points="478.5,322.2266,468.5,326.2266,478.5,330.2266,474.5,326.2266" style="stroke:#181818;stroke-width:1.0;"/><text fill="#000000" font-family="sans-serif" font-size="13" lengthAdjust="spacing" textLength="169" x="474.5" y="308.1606">Chunk transcript if needed</text><polygon fill="#181818" points="1234.5,351.3594,1244.5,355.3594,1234.5,359.3594,1238.5,355.3594" style="stroke:#181818;stroke-width:1.0;"/><line style="stroke:#181818;stroke-width:1.0;" x1="467.5" x2="1240.5" y1="355.3594" y2="355.3594"/><text fill="#000000" font-family="sans-serif" font-size="13" lengthAdjust="spacing" textLength="289" x="474.5" y="350.2935">Generate section summaries (using GPT-3.5)</text><polygon fill="#181818" points="1234.5,380.4922,1244.5,384.4922,1234.5,388.4922,1238.5,384.4922" style="stroke:#181818;stroke-width:1.0;"/><line style="stroke:#181818;stroke-width:1.0;" x1="467.5" x2="1240.5" y1="384.4922" y2="384.4922"/><text fill="#000000" font-family="sans-serif" font-size="13" lengthAdjust="spacing" textLength="276" x="474.5" y="379.4263">Generate overall summary (using GPT-3.5)</text><polygon fill="#181818" points="1077.5,409.625,1087.5,413.625,1077.5,417.625,1081.5,413.625" style="stroke:#181818;stroke-width:1.0;"/><line style="stroke:#181818;stroke-width:1.0;" x1="462.5" x2="1083.5" y1="413.625" y2="413.625"/><text fill="#000000" font-family="sans-serif" font-size="13" lengthAdjust="spacing" textLength="110" x="469.5" y="408.5591">Store summaries</text><polygon fill="#181818" points="638.5,438.7578,648.5,442.7578,638.5,446.7578,642.5,442.7578" style="stroke:#181818;stroke-width:1.0;"/><line style="stroke:#181818;stroke-width:1.0;" x1="23.5" x2="644.5" y1="442.7578" y2="442.7578"/><text fill="#000000" font-family="sans-serif" font-size="13" lengthAdjust="spacing" textLength="83" x="30.5" y="437.6919">Input API key</text><polygon fill="#181818" points="671.5,467.8906,661.5,471.8906,671.5,475.8906,667.5,471.8906" style="stroke:#181818;stroke-width:1.0;"/><line style="stroke:#181818;stroke-width:1.0;" x1="665.5" x2="1088.5" y1="471.8906" y2="471.8906"/><text fill="#000000" font-family="sans-serif" font-size="13" lengthAdjust="spacing" textLength="130" x="677.5" y="466.8247">Retrieve summaries</text><line style="stroke:#181818;stroke-width:1.0;" x1="660.5" x2="702.5" y1="501.0234" y2="501.0234"/><line style="stroke:#181818;stroke-width:1.0;" x1="702.5" x2="702.5" y1="501.0234" y2="514.0234"/><line style="stroke:#181818;stroke-width:1.0;" x1="661.5" x2="702.5" y1="514.0234" y2="514.0234"/><polygon fill="#181818" points="671.5,510.0234,661.5,514.0234,671.5,518.0234,667.5,514.0234" style="stroke:#181818;stroke-width:1.0;"/><text fill="#000000" font-family="sans-serif" font-size="13" lengthAdjust="spacing" textLength="180" x="667.5" y="495.9575">Chunk summaries if needed</text><polygon fill="#181818" points="1234.5,539.1563,1244.5,543.1563,1234.5,547.1563,1238.5,543.1563" style="stroke:#181818;stroke-width:1.0;"/><line style="stroke:#181818;stroke-width:1.0;" x1="660.5" x2="1240.5" y1="543.1563" y2="543.1563"/><text fill="#000000" font-family="sans-serif" font-size="13" lengthAdjust="spacing" textLength="211" x="667.5" y="538.0903">Generate tweets (using GPT-3.5)</text><polygon fill="#181818" points="1077.5,568.2891,1087.5,572.2891,1077.5,576.2891,1081.5,572.2891" style="stroke:#181818;stroke-width:1.0;"/><line style="stroke:#181818;stroke-width:1.0;" x1="655.5" x2="1083.5" y1="572.2891" y2="572.2891"/><text fill="#000000" font-family="sans-serif" font-size="13" lengthAdjust="spacing" textLength="82" x="662.5" y="567.2231">Store tweets</text><polygon fill="#181818" points="875.5,597.4219,865.5,601.4219,875.5,605.4219,871.5,601.4219" style="stroke:#181818;stroke-width:1.0;"/><line style="stroke:#181818;stroke-width:1.0;" x1="869.5" x2="1088.5" y1="601.4219" y2="601.4219"/><text fill="#000000" font-family="sans-serif" font-size="13" lengthAdjust="spacing" textLength="206" x="881.5" y="596.356">Retrieve summaries and tweets</text><polygon fill="#181818" points="34.5,626.5547,24.5,630.5547,34.5,634.5547,30.5,630.5547" style="stroke:#181818;stroke-width:1.0;"/><line style="stroke:#181818;stroke-width:1.0;" x1="28.5" x2="858.5" y1="630.5547" y2="630.5547"/><text fill="#000000" font-family="sans-serif" font-size="13" lengthAdjust="spacing" textLength="199" x="40.5" y="625.4888">Display summaries and tweets</text><!--SRC=[XPC_RuCm4CLtFiKfKpkaIzGbGwMqIIEceeHsT-2IM246OKD5FtrjW-qZVvG9EF_UEz-pOPagQ_YMM4Se55STJDAQ2PdLl5Ay5B0I1ovm0ap29whiIC3trIQ57pGE_8yPscAcx9bjSpupjqpDt09j_8keA6CB133RX5ZeqfvbFP8KfIgwA6UAxPX4cFJxWULGi93xy4PV5Of53EiadSvUNY5jwbrfILsPHP7jCtrp0yDSDwqQ1ItFiOHu6R5CyPOfz94uSYIoRw1yd9IosSqXgKjZIg4Shzn3FvkjrGOFTm8Z5yUuqJMtrHH2w-ZyJbFR8l8wxH6EIhjiKDKSstj6teQSBz5VkdqS6t4YUk1x48WvvXSgSp2QNwF0sjXBtTtSADbJAE6faLmSt9a-Fz2NhNuMnQ3l7gYlKlHjQN9aP7-5XYlihz0YYU64NSZ9tN4QU13vj4D3jpZY-Xn36256WbzceCpITN14SJLtBw53k_sF1kZ_oflx1oPoP-DDXhzua6a36zySbbnM1UjkgyacUk4_]--></g></svg>